<?xml version="1.0" encoding="utf-8"?>
<svg xmlns="http://www.w3.org/2000/svg" version="1.1" width="200" height="200">
<title>Exemple LOGO</title>
<desc>Du LOGO.</desc>
<line x1="100.000000" y1="100.000000" x2="98.000001" y2="100.001778" stroke="red" />
<line x1="98.000001" y1="100.001778" x2="96.002648" y2="99.898901" stroke="red" />
<line x1="96.002648" y1="99.898901" x2="94.013415" y2="99.691652" stroke="red" />
<line x1="94.013415" y1="99.691652" x2="92.037752" y2="99.380598" stroke="red" />
<line x1="92.037752" y1="99.380598" x2="90.081072" y2="98.966591" stroke="red" />
<line x1="90.081072" y1="98.966591" x2="88.148735" y2="98.450766" stroke="red" />
<line x1="88.148735" y1="98.450766" x2="86.246037" y2="97.834536" stroke="red" />
<line x1="86.246037" y1="97.834536" x2="84.378190" y2="97.119589" stroke="red" />
<line x1="84.378190" y1="97.119589" x2="82.550313" y2="96.307885" stroke="red" />
<line x1="82.550313" y1="96.307885" x2="80.767413" y2="95.401647" stroke="red" />
<line x1="80.767413" y1="95.401647" x2="79.034375" y2="94.403358" stroke="red" />
<line x1="79.034375" y1="94.403358" x2="77.355948" y2="93.315754" stroke="red" />
<line x1="77.355948" y1="93.315754" x2="75.736730" y2="92.141815" stroke="red" />
<line x1="75.736730" y1="92.141815" x2="74.181159" y2="90.884756" stroke="red" />
<line x1="74.181159" y1="90.884756" x2="72.693495" y2="89.548022" stroke="red" />
<line x1="72.693495" y1="89.548022" x2="71.277816" y2="88.135276" stroke="red" />
<line x1="71.277816" y1="88.135276" x2="69.937999" y2="86.650388" stroke="red" />
<line x1="69.937999" y1="86.650388" x2="68.677716" y2="85.097427" stroke="red" />
<line x1="68.677716" y1="85.097427" x2="67.500420" y2="83.480649" stroke="red" />
<line x1="67.500420" y1="83.480649" x2="66.409337" y2="81.804481" stroke="red" />
<line x1="66.409337" y1="81.804481" x2="65.407456" y2="80.073518" stroke="red" />
<line x1="65.407456" y1="80.073518" x2="64.497521" y2="78.292501" stroke="red" />
<line x1="64.497521" y1="78.292501" x2="63.682027" y2="76.466312" stroke="red" />
<line x1="63.682027" y1="76.466312" x2="62.963208" y2="74.599952" stroke="red" />
<line x1="62.963208" y1="74.599952" x2="62.343032" y2="72.698536" stroke="red" />
<line x1="62.343032" y1="72.698536" x2="61.823200" y2="70.767274" stroke="red" />
<line x1="61.823200" y1="70.767274" x2="61.405135" y2="68.811456" stroke="red" />
<line x1="61.405135" y1="68.811456" x2="61.089984" y2="66.836442" stroke="red" />
<line x1="61.089984" y1="66.836442" x2="60.878609" y2="64.847644" stroke="red" />
<line x1="60.878609" y1="64.847644" x2="60.771589" y2="62.850509" stroke="red" />
<line x1="60.771589" y1="62.850509" x2="60.769219" y2="60.850510" stroke="red" />
<line x1="60.769219" y1="60.850510" x2="60.871503" y2="58.853128" stroke="red" />
<line x1="60.871503" y1="58.853128" x2="61.078163" y2="56.863833" stroke="red" />
<line x1="61.078163" y1="56.863833" x2="61.388632" y2="54.888078" stroke="red" />
<line x1="61.388632" y1="54.888078" x2="61.802059" y2="52.931275" stroke="red" />
<line x1="61.802059" y1="52.931275" x2="62.317311" y2="50.998786" stroke="red" />
<line x1="62.317311" y1="50.998786" x2="62.932978" y2="49.095905" stroke="red" />
<line x1="62.932978" y1="49.095905" x2="63.647371" y2="47.227846" stroke="red" />
<line x1="63.647371" y1="47.227846" x2="64.458533" y2="45.399728" stroke="red" />
<line x1="64.458533" y1="45.399728" x2="65.364243" y2="43.616560" stroke="red" />
<line x1="65.364243" y1="43.616560" x2="66.362018" y2="41.883226" stroke="red" />
<line x1="66.362018" y1="41.883226" x2="67.449125" y2="40.204477" stroke="red" />
<line x1="67.449125" y1="40.204477" x2="68.622585" y2="38.584912" stroke="red" />
<line x1="68.622585" y1="38.584912" x2="69.879182" y2="37.028968" stroke="red" />
<line x1="69.879182" y1="37.028968" x2="71.215475" y2="35.540908" stroke="red" />
<line x1="71.215475" y1="35.540908" x2="72.627802" y2="34.124810" stroke="red" />
<line x1="72.627802" y1="34.124810" x2="74.112292" y2="32.784553" stroke="red" />
<line x1="74.112292" y1="32.784553" x2="75.664879" y2="31.523810" stroke="red" />
<line x1="75.664879" y1="31.523810" x2="77.281310" y2="30.346035" stroke="red" />
<line x1="77.281310" y1="30.346035" x2="78.957154" y2="29.254455" stroke="red" />
<line x1="78.957154" y1="29.254455" x2="80.687820" y2="28.252061" stroke="red" />
<line x1="80.687820" y1="28.252061" x2="82.468567" y2="27.341599" stroke="red" />
<line x1="82.468567" y1="27.341599" x2="84.294515" y2="26.525564" stroke="red" />
<line x1="84.294515" y1="26.525564" x2="86.160661" y2="25.806191" stroke="red" />
<line x1="86.160661" y1="25.806191" x2="88.061893" y2="25.185453" stroke="red" />
<line x1="88.061893" y1="25.185453" x2="89.993002" y2="24.665048" stroke="red" />
<line x1="89.993002" y1="24.665048" x2="91.948695" y2="24.246404" stroke="red" />
<line x1="91.948695" y1="24.246404" x2="93.923615" y2="23.930667" stroke="red" />
<line x1="93.923615" y1="23.930667" x2="95.912351" y2="23.718703" stroke="red" />
<line x1="95.912351" y1="23.718703" x2="97.909454" y2="23.611091" stroke="red" />
<line x1="97.909454" y1="23.611091" x2="99.909452" y2="23.608128" stroke="red" />
<line x1="99.909452" y1="23.608128" x2="101.906865" y2="23.709821" stroke="red" />
<line x1="101.906865" y1="23.709821" x2="103.896221" y2="23.915891" stroke="red" />
<line x1="103.896221" y1="23.915891" x2="105.872068" y2="24.225775" stroke="red" />
<line x1="105.872068" y1="24.225775" x2="107.828993" y2="24.638622" stroke="red" />
<line x1="107.828993" y1="24.638622" x2="109.761635" y2="25.153302" stroke="red" />
<line x1="109.761635" y1="25.153302" x2="111.664698" y2="25.768404" stroke="red" />
<line x1="111.664698" y1="25.768404" x2="113.532968" y2="26.482243" stroke="red" />
<line x1="113.532968" y1="26.482243" x2="115.361327" y2="27.292864" stroke="red" />
<line x1="115.361327" y1="27.292864" x2="117.144763" y2="28.198045" stroke="red" />
<line x1="117.144763" y1="28.198045" x2="118.878393" y2="29.195307" stroke="red" />
<line x1="118.878393" y1="29.195307" x2="120.557464" y2="30.281916" stroke="red" />
<line x1="120.557464" y1="30.281916" x2="122.177377" y2="31.454896" stroke="red" />
<line x1="122.177377" y1="31.454896" x2="123.733693" y2="32.711032" stroke="red" />
<line x1="123.733693" y1="32.711032" x2="125.222149" y2="34.046884" stroke="red" />
<line x1="125.222149" y1="34.046884" x2="126.638665" y2="35.458791" stroke="red" />
<line x1="126.638665" y1="35.458791" x2="127.979362" y2="36.942884" stroke="red" />
<line x1="127.979362" y1="36.942884" x2="129.240565" y2="38.495098" stroke="red" />
<line x1="129.240565" y1="38.495098" x2="130.418819" y2="40.111179" stroke="red" />
<line x1="130.418819" y1="40.111179" x2="131.510895" y2="41.786699" stroke="red" />
<line x1="131.510895" y1="41.786699" x2="132.513802" y2="43.517069" stroke="red" />
<line x1="132.513802" y1="43.517069" x2="133.424792" y2="45.297546" stroke="red" />
<line x1="133.424792" y1="45.297546" x2="134.241368" y2="47.123252" stroke="red" />
<line x1="134.241368" y1="47.123252" x2="134.961294" y2="48.989185" stroke="red" />
<line x1="134.961294" y1="48.989185" x2="135.582596" y2="50.890233" stroke="red" />
<line x1="135.582596" y1="50.890233" x2="136.103572" y2="52.821187" stroke="red" />
<line x1="136.103572" y1="52.821187" x2="136.522796" y2="54.776756" stroke="red" />
<line x1="136.522796" y1="54.776756" x2="136.839118" y2="56.751583" stroke="red" />
<line x1="136.839118" y1="56.751583" x2="137.051672" y2="58.740256" stroke="red" />
<line x1="137.051672" y1="58.740256" x2="137.159875" y2="60.737327" stroke="red" />
<line x1="137.159875" y1="60.737327" x2="137.163431" y2="62.737324" stroke="red" />
<line x1="137.163431" y1="62.737324" x2="137.062330" y2="64.734767" stroke="red" />
<line x1="137.062330" y1="64.734767" x2="136.856849" y2="66.724183" stroke="red" />
<line x1="136.856849" y1="66.724183" x2="136.547551" y2="68.700122" stroke="red" />
<line x1="136.547551" y1="68.700122" x2="136.135284" y2="70.657170" stroke="red" />
<line x1="136.135284" y1="70.657170" x2="135.621177" y2="72.589964" stroke="red" />
<line x1="135.621177" y1="72.589964" x2="135.006639" y2="74.493210" stroke="red" />
<line x1="135.006639" y1="74.493210" x2="134.293353" y2="76.361691" stroke="red" />
<line x1="134.293353" y1="76.361691" x2="133.483274" y2="78.190290" stroke="red" />
<line x1="133.483274" y1="78.190290" x2="132.578621" y2="79.973995" stroke="red" />
<line x1="132.578621" y1="79.973995" x2="131.581874" y2="81.707919" stroke="red" />
<line x1="131.581874" y1="81.707919" x2="130.495762" y2="83.387312" stroke="red" />
<line x1="130.495762" y1="83.387312" x2="129.323262" y2="85.007573" stroke="red" />
<line x1="129.323262" y1="85.007573" x2="128.067587" y2="86.564261" stroke="red" />
<line x1="128.067587" y1="86.564261" x2="126.732176" y2="88.053113" stroke="red" />
<line x1="126.732176" y1="88.053113" x2="125.320689" y2="89.470048" stroke="red" />
<line x1="125.320689" y1="89.470048" x2="123.836993" y2="90.811184" stroke="red" />
<line x1="123.836993" y1="90.811184" x2="122.285153" y2="92.072847" stroke="red" />
<line x1="122.285153" y1="92.072847" x2="120.669421" y2="93.251579" stroke="red" />
<line x1="120.669421" y1="93.251579" x2="118.994225" y2="94.344152" stroke="red" />
<line x1="118.994225" y1="94.344152" x2="117.264153" y2="95.347572" stroke="red" />
<line x1="117.264153" y1="95.347572" x2="115.483946" y2="96.259089" stroke="red" />
<line x1="115.483946" y1="96.259089" x2="113.658482" y2="97.076207" stroke="red" />
<line x1="113.658482" y1="97.076207" x2="111.792762" y2="97.796685" stroke="red" />
<line x1="111.792762" y1="97.796685" x2="109.891898" y2="98.418551" stroke="red" />
<line x1="109.891898" y1="98.418551" x2="107.961098" y2="98.940099" stroke="red" />
<line x1="107.961098" y1="98.940099" x2="106.005653" y2="99.359902" stroke="red" />
<line x1="106.005653" y1="99.359902" x2="104.030921" y2="99.676810" stroke="red" />
<line x1="104.030921" y1="99.676810" x2="102.042311" y2="99.889953" stroke="red" />
<line x1="102.042311" y1="99.889953" x2="100.045272" y2="99.998748" stroke="red" />
</svg>
